<svg xmlns="http://www.w3.org/2000/svg" width="137" height="58" viewBox="0 0 137 58" fill="none"><g clip-path="url(#clip0_210_905)"><path d="M35.9871 57.9999C33.944 57.9999 31.9136 57.496 29.952 56.5073C29.7057 56.3829 29.4511 56.262 29.2046 56.1448C28.3362 55.7312 27.4368 55.3042 26.6745 54.6295C25.2669 53.3826 24.6162 51.5397 24.9772 49.82C25.3305 48.1372 26.5921 46.8423 28.4389 46.2678C30.5626 45.6064 32.7556 45.128 34.8762 44.664C35.7446 44.4751 36.639 44.2788 37.5173 44.0732C38.5975 43.8212 39.695 43.5588 40.7563 43.3059C41.5787 43.1097 42.4288 42.9069 43.2658 42.7097C43.4404 42.6684 43.5031 42.635 43.5248 42.6193C43.5158 42.5941 43.4829 42.5295 43.3641 42.4064L43.17 42.2051C42.0572 41.0508 40.906 39.8574 39.8386 38.6233C39.6993 38.4627 39.6215 38.4388 39.5905 38.4388C39.4807 38.4388 39.2987 38.6867 39.1898 38.8347C36.5875 42.3758 33.4875 44.5563 29.7132 45.5006C27.7534 45.9939 25.7421 46.2451 23.7231 46.2486C23.0532 46.2486 22.3755 46.22 21.7091 46.1636C18.7142 45.9091 16.0083 45.0593 13.6668 43.6376C11.7648 42.4826 10.1726 40.9919 8.93487 39.2063C7.77219 37.5298 6.87902 35.5301 6.28047 33.263C5.98895 32.1606 5.83513 31.0239 5.68627 29.9262L5.68379 29.9092C5.56377 29.0365 4.98289 28.4752 4.37287 28.0002C3.4735 27.2988 2.71678 26.3861 1.98767 25.1271C0.961454 23.3552 0.32569 21.5715 0.097435 19.825C-0.146947 17.9529 0.0689031 16.0697 0.739092 14.2247C1.43223 12.316 2.89759 11.1764 4.65912 11.1764C5.66859 11.1764 6.69946 11.5566 7.64039 12.2757L7.77561 12.3783C7.89594 12.4694 8.0203 12.5635 8.14063 12.6618C8.60272 13.0366 8.89703 13.2665 9.11567 13.2665C9.33431 13.2665 9.57187 13.0461 10.0653 12.5216C12.8564 9.55059 16.182 7.75246 19.9491 7.17765C21.1536 6.9901 22.3702 6.89367 23.5888 6.88914C26.1241 6.88914 28.4764 7.35309 30.5806 8.26806C32.8033 9.23468 34.8201 10.7352 36.5742 12.7276C37.0636 13.2839 37.4931 13.9037 37.9077 14.5031C38.0684 14.7352 38.2346 14.9755 38.4011 15.2067C38.5984 15.481 38.7203 15.5217 38.7755 15.5217C38.8753 15.5217 39.0009 15.3875 39.1299 15.1437C40.3612 12.8196 41.7062 10.9906 43.2419 9.55185C45.0385 7.86868 47.0171 6.55749 49.1229 5.65386C51.2467 4.74298 53.5578 4.22171 55.9929 4.10486C56.3812 4.08628 56.766 4.07683 57.1366 4.07683C60.081 4.07683 62.598 4.6677 64.8319 5.88315C65.5808 6.2904 66.5488 6.85355 67.3945 7.59624C68.0181 8.14365 68.6418 8.39845 69.3573 8.39845C69.3914 8.39845 69.4261 8.39845 69.4612 8.39656C69.5604 8.39341 69.6559 8.39184 69.7449 8.39184C70.871 8.39184 71.6519 8.67121 72.8394 9.49925C73.2159 9.76162 73.451 9.90398 73.6147 9.90398C73.7958 9.90398 73.9825 9.70555 74.3321 9.26114C76.6189 6.35402 79.6601 4.47589 83.3711 3.67966C85.4002 3.24407 87.3599 3.02359 89.1956 3.02359C90.642 3.02039 92.0851 3.1625 93.5039 3.44785C94.9622 3.74559 96.3838 4.20504 97.7434 4.81794C100.182 5.91717 101.963 7.76254 103.243 9.24728C103.431 9.46587 103.587 9.57642 103.708 9.57642C103.817 9.57642 103.938 9.47752 104.067 9.28193C105.59 6.98017 107.531 5.23275 110.001 3.93919C112.068 2.85729 114.537 2.08941 117.551 1.59176C118.881 1.36935 120.227 1.25592 121.575 1.25255C124.126 1.25255 126.459 1.67964 128.51 2.52154C130.811 3.46643 132.716 4.92251 134.174 6.84977C134.918 7.83798 135.527 8.92424 135.983 10.0788C136.443 11.2348 136.751 12.4472 136.9 13.6848C137.208 16.2634 136.803 18.7737 135.727 20.9432C135.366 21.671 134.808 22.2222 134.268 22.7555C134.16 22.8622 134.048 22.9725 133.94 23.0818C133.692 23.3337 133.349 23.5353 133.047 23.7117C132.878 23.8064 132.714 23.9099 132.556 24.0216C132.817 24.3574 133.321 25.1063 133.466 25.5212C134.164 27.5168 134.429 29.8072 134.212 31.97C133.973 34.3597 133.168 36.4441 131.886 37.9981C130.088 40.1771 127.506 41.498 126.127 42.0927C124.25 42.9006 122.245 43.3273 120.331 43.3273C119.801 43.3276 119.272 43.2952 118.747 43.2303C117.956 43.1327 117.178 42.9579 116.421 42.7084C114.657 42.1261 113.183 41.4876 111.917 40.7557C110.407 39.8832 109.16 38.8687 108.105 37.6539C107.16 36.5666 106.306 35.3723 105.48 34.2173C105.242 33.8847 104.997 33.5408 104.753 33.2053C104.677 33.1017 104.521 32.8863 104.469 32.8863C104.466 32.8863 104.395 32.8897 104.203 33.1697C103.815 33.7367 103.447 34.3373 103.092 34.9169C102.37 36.0939 101.623 37.3106 100.651 38.3556C100.57 38.4426 100.548 38.4923 100.543 38.5131C100.572 38.5342 100.67 38.5739 100.892 38.5827C101.27 38.5978 101.655 38.6057 102.027 38.6142C102.73 38.6281 103.454 38.6426 104.167 38.7087L104.5 38.7402C105.87 38.8618 107.287 38.9878 108.612 39.6114C110.019 40.2728 110.832 40.9774 111.249 41.8955C111.612 42.6958 111.679 43.6464 111.48 45.1765C111.371 46.0108 110.708 46.5582 110.073 46.9838C109.256 47.5318 108.319 47.8553 107.289 47.945C107.103 47.9611 106.912 47.9797 106.727 47.9973C106.127 48.0553 105.507 48.1148 104.894 48.1148C104.777 48.1148 104.661 48.1126 104.551 48.1085C103.989 48.0861 103.394 48.0751 102.78 48.0751C100.888 48.0751 98.9631 48.1806 97.1026 48.2827C95.6761 48.3608 94.2017 48.4401 92.7481 48.4748C89.8059 48.5416 86.6773 48.7094 82.9018 49.0027C78.4862 49.3457 74.0228 49.9198 69.7065 50.4751C69.1906 50.5415 68.6749 50.6077 68.1592 50.6739C67.0096 50.821 65.8494 51.0761 64.7277 51.3227C64.2045 51.4377 63.663 51.5567 63.1286 51.6635C62.6428 51.7607 62.1569 51.857 61.671 51.9523C60.8238 52.1192 59.948 52.2915 59.088 52.4689C56.9627 52.9063 54.8175 53.4267 52.7427 53.9297C52.2618 54.0462 51.7806 54.1625 51.2991 54.2786C50.0871 54.5703 48.873 54.9341 47.6988 55.2865C46.7994 55.5564 45.869 55.8355 44.9424 56.0805C44.3147 56.2468 43.6771 56.4213 43.0605 56.5898C41.7341 56.9524 40.3624 57.3275 39.0009 57.6469C38.0127 57.8801 37.0016 57.9986 35.9871 57.9999V57.9999ZM92.0773 40.8586C88.3378 40.8586 85.0545 40.8983 82.0403 40.9799C74.0635 41.1957 67.5263 41.562 61.4691 42.1324C56.8368 42.5686 52.958 43.024 49.0848 43.8288C45.4764 44.579 41.8175 45.3954 38.279 46.1847C36.363 46.6124 34.3816 47.0543 32.4308 47.4808C30.9816 47.7976 29.4828 48.1255 28.1201 48.8723C27.604 49.1557 27.1751 49.4335 27.1543 49.9794C27.1357 50.4754 27.5414 50.7161 27.9706 50.9709L28.0636 51.0263C30.3896 52.4235 32.6129 53.1026 34.8613 53.1026C35.0266 53.1026 35.1944 53.0988 35.3597 53.0912H35.3743C35.547 53.0975 35.7222 53.101 35.895 53.101C36.8086 53.101 37.7384 53.0065 38.7373 52.8175C40.3946 52.5007 42.0318 51.9844 43.615 51.4849C44.635 51.1633 45.6895 50.8307 46.743 50.5532C54.8373 48.4203 62.1198 46.9041 69.0022 45.9179C76.6624 44.82 83.1102 44.0401 89.6707 43.8026C93.5895 43.6609 97.5743 43.5377 101.428 43.4187C102.954 43.3714 104.481 43.3238 106.007 43.2757C106.939 43.2464 107.614 43.099 108.196 42.7985C108.231 42.7806 108.268 42.7626 108.305 42.7443C108.616 42.5925 108.76 42.4968 108.735 42.2744C108.712 42.075 108.539 41.9831 108.257 41.8549L108.17 41.8146C108.115 41.7915 108.059 41.7727 108.002 41.7582C107.936 41.7406 107.87 41.7187 107.806 41.6927C106.105 40.9601 104.257 40.9424 102.47 40.9257H102.356C99.1852 40.8933 95.5914 40.8586 92.0773 40.8586ZM3.79696 13.8634C3.48528 13.8634 3.20555 14.1154 3.01017 14.5717C2.91487 14.7988 2.85 15.0378 2.81727 15.2823C2.33657 18.7901 4.18679 22.2578 7.3132 23.7167C7.98494 24.0298 8.26158 24.4563 8.26809 25.1889C8.28608 27.2002 8.54721 29.0973 9.04558 30.8267C10.199 34.8378 12.519 37.5329 15.936 38.8375C18.1832 39.6952 20.4639 40.1289 22.7158 40.1289C25.502 40.1289 28.2866 39.4646 30.9922 38.155C33.8143 36.7887 35.6534 34.4013 36.4576 31.0589C36.8409 29.4651 36.8846 27.8579 36.8796 26.6358C36.9265 22.6531 36.0094 19.088 34.1533 16.0373C32.5096 13.3327 30.2457 11.4278 27.4322 10.3758C25.9352 9.81642 24.37 9.54429 22.6466 9.54429C21.7083 9.54761 20.7716 9.62204 19.8443 9.76697C15.3834 10.4416 12.0808 12.7683 10.0287 16.6826C9.71856 17.2738 9.53249 17.6307 9.15041 17.6307C8.90758 17.6307 8.62908 17.4773 8.15799 17.2061C6.72985 16.385 5.53648 15.2596 4.55895 14.2678C4.2972 14.0032 4.03421 13.8634 3.79696 13.8634ZM56.2599 6.71025C55.3734 6.71429 54.4883 6.78281 53.6114 6.91529C49.5177 7.5175 46.1882 9.36602 43.7121 12.4092C40.0755 16.8789 38.5881 22.0068 39.2912 27.6506C39.7818 31.5877 41.6891 34.7915 44.9597 37.1698C46.7604 38.4822 48.8315 39.3614 51.0163 39.7408C52.1848 39.9468 53.2532 40.047 54.2822 40.047C56.718 40.047 58.8374 39.476 60.7639 38.3011C64.0125 36.3169 65.3228 32.6948 64.0224 29.2862C63.7356 28.5341 63.3141 27.9039 62.7695 27.4135C62.2054 26.9054 61.5963 26.6371 61.0077 26.6371C60.1942 26.6371 59.4626 27.1451 58.9478 28.068C57.9864 29.7896 56.7788 31.1061 55.355 31.9811C53.9243 32.8605 52.2568 33.3064 50.3988 33.3064C50.0849 33.3064 49.7605 33.2938 49.4346 33.2683C48.2 33.1738 47.1443 32.7899 46.2964 32.1313C45.4311 31.4592 44.7842 30.5004 44.3736 29.2815C43.139 25.6185 43.5173 22.1781 45.4994 19.0553C46.4608 17.5415 47.562 16.3718 48.7743 15.5784C50.1308 14.6905 51.6734 14.2404 53.3596 14.2404C53.4598 14.2404 53.5621 14.2404 53.6638 14.2451C55.3208 14.2962 56.5024 15.2596 56.9056 16.8877C57.2012 18.082 56.9862 19.2184 56.7369 20.1709C56.3498 21.6512 56.806 22.5803 58.2168 23.1803C58.8769 23.4576 59.585 23.598 60.2993 23.5933C63.5557 23.5933 66.7271 20.9447 67.2233 17.8096C67.2853 17.4118 67.3321 17.0146 67.3852 16.5551C67.4118 16.3242 67.4394 16.0858 67.4717 15.8256L67.8128 15.7878C68.6359 18.1359 70.0014 19.4953 71.9869 19.9453C73.0428 20.1838 73.1908 20.8609 73.193 21.557C73.1979 23.0947 73.3896 24.6405 73.7791 26.2831C75.3607 32.9474 80.4158 37.0863 86.9738 37.0863C87.8486 37.0844 88.7219 37.0132 89.5857 36.8734C95.1299 35.9855 98.9417 32.4116 100.915 26.2516C101.782 23.5473 102.019 20.5419 101.664 16.7932C101.159 11.4728 97.6832 7.41671 92.5924 6.20756C91.1327 5.8611 89.6413 5.6926 88.0335 5.6926C87.1483 5.69472 86.2638 5.74339 85.3835 5.83842C82.6779 6.12567 80.285 7.03529 78.271 8.54145C76.8032 9.63784 75.6405 11.1128 74.8093 12.9232C74.6543 13.2618 74.4118 13.6505 73.91 13.6505C73.7385 13.6505 73.5409 13.6042 73.3055 13.5084C71.7093 12.8612 70.5454 12.212 69.5269 11.4042C69.2385 11.1755 68.987 11.0593 68.7792 11.0593C68.4762 11.0593 68.2117 11.3191 67.971 11.8539C67.6739 12.5135 67.5678 13.2281 67.4565 13.985L67.3607 14.6338L67.1188 14.0253L67.0192 13.7733C66.9479 13.5928 66.8766 13.4124 66.8037 13.2325C65.984 11.2023 64.6985 9.66303 62.8737 8.52696C60.9094 7.3049 58.7465 6.71025 56.2599 6.71025ZM120.565 3.90234C118.506 3.90234 116.319 4.23715 113.88 4.92566C111.258 5.66582 109.111 6.9219 107.496 8.65861C105.104 11.2316 103.978 14.4174 104.054 18.3986V18.4027C104.05 19.1957 104.07 20.2361 104.25 21.2528C105.258 26.9379 107.723 31.2626 111.791 34.4734C113.888 36.1295 116.557 37.0413 119.308 37.0413C122.223 37.0413 124.942 36.0444 126.963 34.234C128.528 32.8321 129.438 30.6418 129.399 28.3757C129.362 26.2654 128.513 24.3624 127.069 23.1592C126.53 22.7098 125.975 22.472 125.462 22.472C124.793 22.472 124.219 22.8685 123.803 23.6181C123.14 24.8115 122.262 25.7889 121.193 26.5231C120.201 27.2059 119.004 27.7032 117.639 28.0012C117.094 28.1206 116.539 28.1812 115.982 28.182C114.696 28.182 113.459 27.8494 112.405 27.2204C111.33 26.5812 110.465 25.6341 109.918 24.4978C108.7 21.968 108.309 19.3516 108.755 16.7214C109.121 14.5639 110.197 12.7276 111.868 11.4117C113.431 10.1802 115.423 9.50209 117.476 9.50209C117.622 9.50209 117.77 9.50555 117.916 9.51248C120.233 9.62114 121.707 10.8983 121.96 13.018C122.048 13.7588 121.857 14.4517 121.673 15.1217L121.635 15.2596C121.352 16.299 121.585 17.1264 122.369 17.8638C123.507 18.9324 124.876 19.4742 126.44 19.4742C126.608 19.4742 126.781 19.4679 126.954 19.4556C130.309 19.2172 132.357 16.9869 132.299 13.635C132.225 9.34776 129.227 5.57732 125.009 4.46644C123.557 4.08825 122.064 3.8987 120.565 3.90234V3.90234ZM24.5954 35.8136C21.9531 35.8136 20.0719 35.1055 18.6742 33.5861C17.3756 32.1741 17.0202 30.3288 16.7675 28.5593C16.6434 27.6954 16.5299 26.6695 16.6183 25.6116C16.6834 24.8336 17.0193 24.426 17.7776 24.2052C19.6951 23.6468 21.3537 22.5548 22.7071 20.9611C23.3856 20.1614 23.7854 19.2918 23.8952 18.3784C23.9774 17.6915 24.3936 17.5778 24.8305 17.557C24.936 17.5523 25.0427 17.5497 25.1475 17.5497C26.3882 17.5448 27.6036 17.9058 28.646 18.5891C29.6741 19.2666 30.5009 20.2468 31.0378 21.4238C31.8633 23.2345 32.2522 25.1889 32.2615 27.5741C32.2978 28.4305 32.1806 29.4088 31.9315 30.3294C31.5104 31.8853 30.6051 33.239 29.3131 34.2441C28.0642 35.2154 26.5338 35.7713 25.0023 35.8095C24.8649 35.8113 24.7276 35.8136 24.5954 35.8136ZM88.8932 30.8837C87.1922 30.8837 85.4896 30.2437 83.969 29.0327C83.1137 28.3514 82.726 27.3187 82.4022 26.3193C81.96 24.9555 81.4675 23.1101 81.5742 20.9129C81.3853 20.2654 81.4501 19.7227 81.7693 19.2549C82.0484 18.8496 82.5136 18.5031 83.2427 18.1645C84.9741 17.3592 86.5499 16.0735 87.9256 14.3428C88.3393 13.8228 88.6246 13.1906 88.825 12.3535C88.9801 11.7049 89.3832 11.5934 89.7963 11.5695C89.9936 11.5582 90.1899 11.5522 90.3797 11.5522C91.9759 11.5522 93.3138 11.9588 94.3565 12.7604C95.4124 13.5724 96.1713 14.7954 96.6117 16.3951C97.1026 18.1781 97.3033 19.8792 97.2078 21.4515C97.1097 23.1696 96.6286 24.8426 95.8007 26.3442C95.0229 27.7543 93.979 28.9133 92.7819 29.696C91.5932 30.473 90.2488 30.8837 88.8938 30.8837H88.8932Z" fill="url(#paint0_linear_210_905)"></path><path d="M39.0469 37.2948C36.6458 40.5623 33.6391 42.9012 29.6692 43.8943C27.0458 44.5507 24.3799 44.7784 21.7218 44.5525C18.9179 44.3154 16.2105 43.5418 13.7555 42.0514C9.86807 39.6911 7.60258 36.1528 6.4489 31.7836C6.15862 30.6847 6.0079 29.5684 5.85656 28.4516C5.73033 27.5209 5.12682 26.9294 4.48021 26.4254C3.48624 25.6493 2.75682 24.6692 2.13997 23.6037C0.174686 20.2124 -0.463249 16.6212 0.904419 12.8552C2.00197 9.83154 4.98323 9.0372 7.53435 10.9868C7.70027 11.1128 7.86836 11.2388 8.03056 11.3692C9.10857 12.2442 9.20905 12.2612 10.1928 11.2117C12.881 8.35026 16.1296 6.50772 19.9752 5.92032C26.3471 4.94802 32.0041 6.37071 36.443 11.413C37.1141 12.1755 37.6637 13.0489 38.2598 13.8782C38.6558 14.4288 38.973 14.3878 39.286 13.7954C40.3736 11.7431 41.6702 9.83595 43.3623 8.25199C46.9288 4.91337 51.1313 3.08658 56.0019 2.85225C59.0675 2.70516 62.0088 3.11808 64.7497 4.60912C65.6447 5.09637 66.5125 5.62551 67.2804 6.29985C67.9158 6.85765 68.5987 7.17293 69.468 7.14395C70.6701 7.10364 71.4255 7.29797 72.7408 8.21483C73.6464 8.84476 73.7757 8.82334 74.4698 7.94081C76.788 4.99369 79.8424 3.18863 83.4074 2.42516C88.2376 1.38861 93.0415 1.46452 97.6711 3.55147C99.8659 4.54077 101.564 6.14111 103.109 7.93514C103.527 8.41956 103.859 8.48412 104.211 7.95183C107.403 3.12847 112.213 1.22389 117.578 0.338207C123.555 -0.648575 130.135 0.375373 134.033 5.52882C136.968 9.41012 137.764 15.0073 135.57 19.4332C135.151 20.2783 134.454 20.8795 133.816 21.5255C133.389 21.9599 132.651 22.2392 132.306 22.5718C132.393 22.6411 133.124 23.6478 133.3 24.1533C134.644 27.9958 134.438 33.199 131.751 36.4551C130.296 38.2189 128.128 39.6079 126.058 40.499C123.771 41.4832 121.243 41.9308 118.768 41.6237C117.989 41.5273 117.222 41.3551 116.475 41.1094C113.332 40.07 110.444 38.6482 108.238 36.1074C107.028 34.714 105.984 33.1694 104.895 31.6711C104.585 31.2434 104.446 31.0749 104.059 31.6397C102.881 33.3612 101.961 35.2617 100.524 36.8051C100.13 37.2284 100.551 37.3194 100.886 37.3329C101.975 37.3764 103.069 37.3569 104.153 37.4558C105.641 37.5912 107.137 37.6813 108.539 38.3408C111.31 39.6445 111.647 41.1015 111.306 43.7201C111.206 44.4877 110.584 44.9948 109.977 45.4017C109.167 45.945 108.247 46.2489 107.275 46.3337C106.371 46.4124 105.461 46.5321 104.558 46.4965C100.612 46.3409 96.684 46.7734 92.745 46.8628C89.4605 46.9375 86.1725 47.1362 82.8891 47.3913C77.9507 47.7749 73.0466 48.4354 68.1382 49.0635C66.443 49.2805 64.7758 49.7192 63.0955 50.055C61.7483 50.3243 60.3974 50.5832 59.0533 50.8603C56.4401 51.3986 53.8527 52.0477 51.2588 52.6717C49.1118 53.1879 47.0283 53.9098 44.8977 54.4742C42.9207 54.998 40.952 55.5719 38.9613 56.0396C35.864 56.7669 32.8703 56.3505 30.0295 54.9168C28.9211 54.3571 27.747 53.912 26.7896 53.0641C24.0915 50.6751 24.4528 46.2644 28.4898 45.0086C31.4732 44.0807 34.5292 43.5254 37.5561 42.8171C39.4736 42.3686 41.388 41.9056 43.3046 41.4536C43.7214 41.3553 43.8579 41.2331 43.4907 40.8508C42.2967 39.6117 41.0968 38.3748 39.9707 37.0737C39.5896 36.6328 39.3865 36.8315 39.0469 37.2948ZM67.2832 12.5267C67.178 12.2624 67.0741 11.9975 66.9678 11.7339C66.1456 9.69768 64.8322 8.10491 62.9671 6.94363C60.0435 5.12346 56.8886 4.82078 53.5863 5.30582C49.5692 5.89701 46.1504 7.69955 43.5766 10.863C39.9558 15.3132 38.3975 20.477 39.1169 26.2409C39.6209 30.2872 41.5877 33.5055 44.8574 35.8832C46.6793 37.2114 48.7749 38.1011 50.9856 38.4848C54.4203 39.0904 57.7669 38.9056 60.8526 37.0224C64.1862 34.9877 65.521 31.296 64.1844 27.7892C63.9015 27.0465 63.4773 26.3813 62.8843 25.8471C61.4174 24.5265 59.752 24.8257 58.7925 26.5473C56.736 30.2343 53.5869 31.9798 49.4445 31.6576C47.0593 31.4721 45.3468 30.1965 44.5374 27.7914C43.3434 24.2443 43.669 20.8376 45.648 17.7208C47.4879 14.8231 50.0192 12.8801 53.6586 12.9925C55.2402 13.0413 56.3489 13.9406 56.7351 15.5003C57.003 16.5818 56.8439 17.6354 56.567 18.6937C56.1551 20.2685 56.6702 21.2849 58.1486 21.9142C61.8199 23.4758 66.7414 20.5482 67.397 16.4067C67.4922 15.8042 67.5499 15.1954 67.6451 14.4165C68.4362 16.6726 69.7608 18.1935 71.9472 18.6871C72.8286 18.8861 73.0128 19.3869 73.0153 20.1246C73.0202 21.7391 73.2342 23.3237 73.6064 24.8922C75.385 32.3927 81.6533 36.8923 89.6115 35.6183C95.69 34.645 99.2435 30.6103 101.081 24.8749C102.074 21.7734 102.144 18.5756 101.838 15.344C101.329 9.98209 97.753 5.81795 92.6309 4.60156C90.2187 4.02864 87.7994 3.96974 85.3627 4.22833C82.7372 4.50707 80.3098 5.36031 78.164 6.96537C76.601 8.13451 75.4591 9.64634 74.6484 11.4155C74.3556 12.0546 74.0099 12.1695 73.3707 11.91C72.0371 11.3695 70.7749 10.7361 69.6352 9.83122C68.8124 9.17799 68.2517 9.36728 67.8104 10.3474C67.5068 11.0237 67.3976 11.7528 67.2832 12.5267V12.5267ZM37.0565 25.2049C37.1014 21.3882 36.2914 17.7797 34.3041 14.5128C32.6793 11.842 30.4442 9.88036 27.4936 8.77735C24.9816 7.83782 22.4091 7.76789 19.8192 8.15971C15.3843 8.83027 12.0039 11.1075 9.87366 15.1683C9.32845 16.2077 9.28627 16.219 8.24579 15.6199C6.89859 14.8448 5.76848 13.8105 4.68303 12.7091C3.96787 11.9846 3.24775 12.1374 2.84924 13.0687C2.74767 13.3102 2.67851 13.5645 2.64362 13.8247C2.15176 17.4118 4.01129 20.9403 7.24035 22.4452C7.85782 22.7331 8.08669 23.0922 8.09259 23.7564C8.10995 25.684 8.34379 27.5902 8.8769 29.444C9.96949 33.2463 12.168 36.1578 15.874 37.5751C20.9989 39.5308 26.1393 39.276 31.0688 36.8876C34.0296 35.4542 35.8448 32.9376 36.6294 29.6724C36.9839 28.1968 37.0627 26.7089 37.0565 25.2049ZM103.877 16.9702C103.874 17.8647 103.901 18.8628 104.077 19.8528C105.029 25.2257 107.36 29.7697 111.683 33.1833C116.269 36.8054 123.008 36.5849 127.079 32.9367C130.339 30.0157 130.442 24.3067 127.181 21.5891C125.843 20.4732 124.46 20.6392 123.649 22.0984C122.302 24.5237 120.2 25.8273 117.602 26.3946C114.472 27.0777 111.406 25.7479 110.077 22.9876C108.92 20.5844 108.469 18.0316 108.929 15.3201C109.708 10.726 113.727 8.06365 117.909 8.25955C120.152 8.36475 121.544 9.57799 121.786 11.6079C121.875 12.3623 121.661 13.0713 121.466 13.7812C121.167 14.8773 121.418 15.7822 122.25 16.5645C123.591 17.8244 125.181 18.3305 126.967 18.2023C130.237 17.9702 132.54 15.8521 132.476 12.2001C132.399 7.75908 129.296 3.97951 125.054 2.86138C121.265 1.86389 117.531 2.27776 113.834 3.32155C111.37 4.0173 109.134 5.2044 107.367 7.10427C104.834 9.82965 103.805 13.156 103.877 16.9702ZM35.3672 51.8383C36.5624 51.884 37.6705 51.7715 38.7693 51.5611C41.5052 51.038 44.1001 50.0021 46.7864 49.2934C54.1219 47.3608 61.5151 45.7381 69.0261 44.6634C75.8843 43.6807 82.7487 42.8007 89.6763 42.5497C95.1209 42.3528 100.567 42.1957 106.012 42.0231C106.798 41.9982 107.569 41.8911 108.276 41.5264C108.56 41.3799 108.958 41.2461 108.91 40.8218C108.87 40.4725 108.526 40.3528 108.243 40.2205C108.127 40.1657 107.994 40.1475 107.875 40.0945C106.107 39.3326 104.211 39.3301 102.358 39.3122C95.5846 39.247 88.8114 39.1862 82.0366 39.3682C75.1629 39.5544 68.301 39.8766 61.4537 40.5213C57.2952 40.9131 53.1422 41.3717 49.0507 42.2221C43.4864 43.3787 37.9481 44.6606 32.3946 45.8757C30.8948 46.2036 29.4022 46.5371 28.0367 47.2849C27.5206 47.5683 27.003 47.8927 26.9782 48.5425C26.9534 49.1923 27.5144 49.4742 27.974 49.7504C30.2736 51.1306 32.7314 51.9586 35.3672 51.8383ZM82.5688 24.8317C82.8829 25.8012 83.2551 26.8053 84.0773 27.4604C88.219 30.759 93.1426 29.365 95.6451 24.8251C97.357 21.7205 97.3613 18.3576 96.4402 15.0114C95.5191 11.6653 93.2285 10.1182 89.8035 10.3166C89.3525 10.3427 89.1088 10.4791 88.9937 10.9638C88.8179 11.7024 88.5512 12.4076 88.0612 13.0237C86.753 14.6678 85.1884 16.0237 83.3137 16.8956C82.0422 17.4871 81.3673 18.196 81.7491 19.4594C81.6508 21.4326 82.0257 23.1539 82.5694 24.8317H82.5688ZM30.8778 20.066C29.7706 17.6379 27.4642 16.1796 24.8386 16.3031C24.3815 16.3248 24.1315 16.4559 24.0701 16.9677C23.9479 17.9853 23.4989 18.8691 22.8408 19.6449C21.4864 21.2408 19.8173 22.3662 17.8263 22.9454C17.1338 23.1473 16.8525 23.4963 16.7939 24.1952C16.712 25.176 16.8047 26.1416 16.9421 27.102C17.1964 28.8828 17.5382 30.657 18.8029 32.0324C20.4776 33.8529 22.699 34.2548 24.9983 34.1978C28.0481 34.1219 30.914 31.9801 31.7613 28.8491C32.0165 27.9042 32.1189 26.9404 32.0851 26.1457C32.077 23.913 31.7343 21.9444 30.8778 20.066Z" fill="url(#paint1_linear_210_905)"></path><g style="mix-blend-mode:multiply" opacity="0.42"><g style="mix-blend-mode:multiply" opacity="0.42"><path d="M36.7109 53.7407C35.4169 53.7357 34.131 53.5333 32.8963 53.1403C31.7383 52.7769 30.5539 52.2377 29.3763 51.5375L29.2873 51.4849C28.8041 51.2014 27.9054 50.6723 27.9488 49.5447C27.9944 48.3542 28.9902 47.8124 29.4684 47.5541C30.9639 46.7431 32.6085 46.3869 34.0583 46.0738C36.01 45.6514 37.9933 45.2133 39.9111 44.7897C43.4503 44.0083 47.1098 43.1998 50.7231 42.4565C54.6441 41.6495 58.5551 41.1944 63.2213 40.7594C69.3038 40.1925 75.8625 39.8287 83.8622 39.6142C86.8866 39.5333 90.1792 39.4942 93.9281 39.4942C97.4521 39.4942 101.046 39.5282 104.216 39.5572H104.33C106.219 39.5748 108.172 39.5934 110.065 40.3997C110.078 40.4045 110.111 40.4136 110.136 40.4205C110.248 40.4498 110.358 40.4885 110.464 40.5361C110.486 40.5468 110.512 40.5582 110.537 40.5695C110.863 40.716 111.54 41.0202 111.634 41.8325C111.661 42.0454 111.637 42.2618 111.565 42.4634C111.492 42.665 111.373 42.846 111.217 42.9909C111.013 43.1853 110.783 43.2971 110.613 43.3787C110.582 43.3935 110.553 43.4076 110.525 43.4218C109.593 43.8984 108.627 43.9862 107.889 44.0095C106.403 44.0562 104.917 44.102 103.43 44.1472C99.5383 44.2662 95.5134 44.3891 91.5571 44.5308C85.0444 44.7645 78.6282 45.533 70.999 46.6149C64.1582 47.5856 56.9154 49.0789 48.8558 51.1819C47.8265 51.4502 46.7838 51.7759 45.7756 52.0909C44.163 52.5948 42.4976 53.1145 40.7807 53.4396C39.7173 53.6411 38.7236 53.7391 37.7414 53.7391C37.5674 53.7391 37.3913 53.7359 37.2167 53.73C37.0511 53.7369 36.8799 53.7407 36.7109 53.7407ZM24.5662 40.898C22.1869 40.898 19.7806 40.4445 17.4144 39.5503C13.6677 38.1348 11.1336 35.2321 9.88071 30.9231C9.35566 29.1155 9.07965 27.1401 9.06104 25.0512C9.05825 24.7489 9.03716 24.6959 8.72238 24.5507C6.9816 23.7425 5.54449 22.3848 4.62514 20.6798C3.70579 18.9748 3.3534 17.0138 3.62045 15.0889C3.66664 14.7509 3.7576 14.4208 3.89088 14.1075C4.25932 13.2571 4.89942 12.7679 5.64714 12.7679C6.01216 12.7679 6.56977 12.8914 7.15499 13.4788C8.13034 14.4577 9.21486 15.4669 10.5301 16.2165C10.6095 16.2618 10.7134 16.3207 10.8114 16.374C10.8607 16.2845 10.91 16.1913 10.946 16.122C13.1647 11.933 16.7287 9.44476 21.5394 8.72381C22.5185 8.57251 23.5073 8.49492 24.4977 8.49168C26.3476 8.49168 28.0332 8.78239 29.648 9.3802C32.6901 10.5059 35.1311 12.5393 36.905 15.4237C37.9184 17.075 38.6749 18.8752 39.1479 20.7608C39.5966 22.5438 39.8122 24.467 39.7889 26.4771C39.7939 27.7461 39.7467 29.4176 39.3364 31.107C38.9091 32.8658 38.1951 34.4072 37.2142 35.6885C36.1908 37.0243 34.8746 38.0841 33.2988 38.8381C30.4503 40.2035 27.5131 40.8958 24.5684 40.8958L24.5662 40.898ZM26.779 18.5463C26.6239 19.6194 26.1473 20.6294 25.358 21.5501C23.8694 23.2887 22.0396 24.4793 19.9193 25.0909C19.6802 25.1599 19.6135 25.2232 19.5989 25.2412C19.5843 25.2591 19.5409 25.3265 19.522 25.5517C19.4426 26.4906 19.5493 27.4314 19.664 28.2289C19.9022 29.8793 20.2068 31.4582 21.2972 32.6321C22.4971 33.9234 24.0852 34.4995 26.4453 34.4995C26.5694 34.4995 26.6968 34.4995 26.8255 34.4948C29.5472 34.428 32.0431 32.4749 32.7605 29.8506C32.9775 29.0538 33.0852 28.1776 33.0535 27.4472V27.4298V27.4122C33.0452 25.2075 32.6876 23.4122 31.9278 21.7624C30.9995 19.7466 29.1561 18.5434 26.9967 18.5434C26.9251 18.5422 26.8519 18.5434 26.779 18.5463ZM56.1308 40.8158C55.0404 40.8158 53.9134 40.7112 52.6847 40.4967C50.3465 40.0953 48.1278 39.1626 46.1943 37.7682C42.6746 35.2346 40.6219 31.8182 40.0925 27.6138C39.7204 24.6685 39.9347 21.8213 40.7249 19.1501C41.5045 16.5148 42.8579 14.013 44.7472 11.7144C47.3957 8.49168 50.9498 6.53544 55.3099 5.89984C56.2368 5.76163 57.1723 5.69027 58.1091 5.6863C60.797 5.6863 63.1416 6.3263 65.2771 7.64254C66.2569 8.24006 67.1364 8.99276 67.8822 9.87217C68.2611 10.3234 68.6017 10.8064 68.9004 11.316C69.0765 10.9475 69.2747 10.664 69.5039 10.4511C69.827 10.1506 70.2172 9.99185 70.6312 9.99185C71.0871 9.99185 71.5445 10.1774 72.0302 10.5588C72.9655 11.2942 74.051 11.8908 75.5495 12.4924C75.5948 12.5103 75.6317 12.5239 75.6615 12.533C75.6733 12.5109 75.6869 12.4842 75.7018 12.4517C76.6071 10.4958 77.8829 8.89924 79.4941 7.70648C81.6612 6.10016 84.2282 5.13322 87.1232 4.82897C88.0401 4.73106 88.9614 4.68102 89.8834 4.67904C91.5742 4.67904 93.1447 4.85511 94.6845 5.217C97.3801 5.85071 99.7306 7.2545 101.482 9.27626C103.233 11.298 104.301 13.8413 104.568 16.6297C104.938 20.4915 104.685 23.6037 103.772 26.4251C101.666 32.9351 97.5699 36.7156 91.6021 37.6624C90.6838 37.8093 89.7557 37.8839 88.8261 37.8857V37.8857C85.3583 37.8857 82.1931 36.7981 79.6727 34.7405C77.1796 32.7049 75.4267 29.8125 74.6033 26.3753C74.1918 24.6667 73.9905 23.0553 73.9852 21.449C73.9852 21.134 73.9393 21.0414 73.9254 21.0203C73.908 20.9935 73.8212 20.9356 73.6072 20.8877C72.3834 20.6143 71.337 20.0414 70.4972 19.1869C70.311 18.9968 70.1361 18.7956 69.9734 18.5844C69.5631 20.1277 68.6144 21.5498 67.2527 22.6474C65.7675 23.8443 63.9076 24.5284 62.1498 24.5284C61.2957 24.5333 60.4491 24.3664 59.6588 24.0374C57.7671 23.2414 57.0445 21.7778 57.5652 19.8049C57.7798 18.9923 57.9683 18.0338 57.7302 17.0867C57.4427 15.9365 56.6652 15.3097 55.4817 15.2735C55.3909 15.2707 55.2991 15.2694 55.2094 15.2694C52.3652 15.2694 50.0849 16.6691 48.238 19.5488C46.4393 22.352 46.0982 25.449 47.2208 28.7524C47.8957 30.7366 49.2888 31.8236 51.3617 31.9833C51.6612 32.0063 51.959 32.0179 52.2465 32.0179C55.5713 32.0179 58.1389 30.4541 59.8756 27.3703C60.5759 26.1278 61.662 25.415 62.8553 25.415C63.7063 25.415 64.5579 25.7731 65.3184 26.4509C65.9904 27.0494 66.5074 27.8125 66.856 28.7165C68.3474 32.5905 66.8606 36.6983 63.1559 38.9367C61.0619 40.2007 58.7638 40.8158 56.1308 40.8158V40.8158ZM91.6939 12.6221C91.4566 13.5913 91.1084 14.3393 90.5991 14.9733C89.1186 16.8159 87.4141 18.1891 85.5335 19.0553C84.1848 19.6767 84.3169 20.1094 84.4446 20.5283L84.4902 20.678L84.4822 20.8354C84.3783 22.8481 84.8416 24.5624 85.2575 25.8311C85.5419 26.7004 85.8489 27.5215 86.4726 28.0131C87.8061 29.0639 89.2826 29.6195 90.7446 29.6195C93.1496 29.6195 95.3308 28.1798 96.7301 25.6689C98.1799 23.066 98.4141 20.1076 97.4455 16.625C96.6935 13.9217 94.9881 12.6073 92.232 12.6073C92.062 12.6073 91.8862 12.6127 91.7088 12.6227L91.6939 12.6221ZM121.158 37.84C118.174 37.84 115.274 36.8577 112.992 35.074C110.806 33.3653 109.025 31.3011 107.699 28.9391C106.454 26.7234 105.566 24.1646 105.06 21.3347C104.865 20.248 104.842 19.1595 104.846 18.3305C104.809 16.2996 105.083 14.4206 105.663 12.745C106.279 10.9657 107.259 9.35185 108.578 7.94837C110.326 6.0863 112.638 4.74393 115.448 3.95841C117.98 3.25037 120.26 2.90643 122.417 2.90643C124.004 2.90263 125.586 3.10157 127.125 3.49856C128.256 3.79279 129.334 4.26724 130.319 4.90424C131.279 5.52407 132.136 6.29387 132.859 7.18521C133.58 8.07141 134.152 9.07155 134.555 10.1459C134.965 11.2457 135.186 12.4094 135.206 13.5856C135.24 15.5576 134.633 17.2436 133.45 18.4609C132.328 19.6156 130.747 20.2956 128.877 20.4269C128.68 20.4408 128.481 20.448 128.288 20.448C126.45 20.448 124.839 19.8165 123.5 18.5712C122.423 17.5689 122.075 16.3434 122.465 14.9289L122.504 14.7878C122.667 14.1998 122.822 13.6439 122.759 13.121C122.519 11.1304 120.972 10.6432 119.716 10.5849C119.587 10.5789 119.455 10.5758 119.325 10.5758C115.435 10.5758 112.277 13.1519 111.645 16.8401C111.238 19.2197 111.598 21.592 112.717 23.8915C113.632 25.7738 115.592 26.9429 117.83 26.9429C118.313 26.9421 118.794 26.8901 119.265 26.7876C121.808 26.238 123.596 24.9876 124.731 22.9652C125.339 21.8855 126.253 21.2915 127.312 21.2915C128.072 21.2915 128.86 21.6099 129.59 22.2128C131.273 23.6021 132.263 25.7772 132.306 28.1801C132.327 29.406 132.101 30.6234 131.642 31.7574C131.154 32.9543 130.438 33.9748 129.513 34.7959C128.396 35.7858 127.088 36.5531 125.623 37.0769C124.188 37.5864 122.678 37.8444 121.158 37.84V37.84Z" fill="#231F20"></path></g></g><path d="M109.112 41.8839C108.406 42.2486 107.635 42.3563 106.848 42.3806C101.403 42.5528 95.9569 42.7103 90.5126 42.9072C83.585 43.1591 76.7203 44.0382 69.8627 45.0206C62.3514 46.0971 54.9582 47.7195 47.6224 49.6506C44.9361 50.3583 42.3416 51.3945 39.6056 51.9183C38.5068 52.1287 37.3984 52.2408 36.2035 52.1952C33.5674 52.3158 31.1096 51.4874 28.8097 50.106C28.3498 49.8295 27.7894 49.5435 27.8142 48.8981C27.839 48.2527 28.3563 47.9217 28.8724 47.6382C30.2369 46.8902 31.7308 46.5576 33.2303 46.2294C38.7816 45.0159 44.3217 43.734 49.8864 42.5774C53.9776 41.727 58.1308 41.2694 62.2894 40.8766C69.1367 40.2319 75.9986 39.9093 82.872 39.7232C89.6467 39.5402 96.4203 39.6019 103.194 39.6675C105.047 39.6851 106.941 39.6876 108.711 40.4498C108.829 40.5009 108.962 40.5191 109.079 40.5742C109.361 40.7062 109.705 40.8262 109.745 41.1755C109.795 41.6035 109.396 41.7371 109.112 41.8839ZM123.087 16.9214C124.428 18.1812 126.017 18.6874 127.803 18.5592C131.073 18.3271 133.376 16.2092 133.312 12.5569C133.235 8.11593 130.132 4.33637 125.89 3.21824C122.102 2.22075 118.367 2.63493 114.67 3.67872C112.206 4.37542 109.972 5.56221 108.204 7.46238C105.67 10.1878 104.641 13.5138 104.713 17.328C104.71 18.2228 104.737 19.2206 104.913 20.2106C105.865 25.5838 108.196 30.1278 112.519 33.5411C117.105 37.1632 123.844 36.9427 127.915 33.2945C131.175 30.3735 131.278 24.6645 128.017 21.9469C126.679 20.831 125.296 20.997 124.486 22.4566C123.138 24.8818 121.036 26.1851 118.438 26.7524C115.308 27.4355 112.243 26.1057 110.913 23.3454C109.756 20.9425 109.305 18.3897 109.766 15.6776C110.545 11.0838 114.562 8.42145 118.745 8.61736C120.988 8.72256 122.38 9.9358 122.622 11.9657C122.712 12.7217 122.496 13.4291 122.302 14.139C122.005 15.2344 122.254 16.139 123.087 16.9214ZM102.676 15.7028C102.168 10.3408 98.5899 6.17639 93.4691 4.95999C91.0566 4.38739 88.6373 4.32818 86.2009 4.58676C83.5754 4.86551 81.148 5.71874 79.0022 7.32411C77.4392 8.49295 76.2973 10.0048 75.4853 11.7742C75.1923 12.413 74.8465 12.5279 74.2073 12.2684C72.8738 11.7283 71.6118 11.0945 70.4721 10.1897C69.6493 9.53642 69.0886 9.72572 68.647 10.7059C68.3421 11.3827 68.233 12.1106 68.1198 12.8845C68.0147 12.6202 67.9111 12.3553 67.8044 12.0917C66.9825 10.0558 65.6688 8.46302 63.8037 7.30175C60.8805 5.48158 57.7252 5.17889 54.4233 5.66394C50.4059 6.25544 46.9873 8.05767 44.4135 11.2215C40.7928 15.6716 39.2344 20.8354 39.9536 26.599C40.4579 30.6456 42.425 33.8636 45.6944 36.2413C47.5162 37.5697 49.6118 38.4595 51.8225 38.8432C55.2569 39.4489 58.6035 39.2637 61.6893 37.3805C65.0232 35.3458 66.3579 31.6541 65.0213 28.1473C64.7381 27.4046 64.3139 26.7394 63.7209 26.2053C62.2546 24.8849 60.5886 25.1838 59.6294 26.9054C57.5726 30.5924 54.4239 32.3382 50.2815 32.016C47.8963 31.8302 46.1838 30.5543 45.3743 28.1495C44.1803 24.6024 44.506 21.1958 46.4849 18.0789C48.3249 15.1812 50.8562 13.2382 54.4955 13.351C56.0772 13.3998 57.1859 14.299 57.5717 15.8587C57.8396 16.94 57.6805 17.9935 57.4039 19.0521C56.9921 20.6269 57.5069 21.6433 58.9856 22.2723C62.6569 23.8342 67.578 20.9063 68.2339 16.7648C68.3291 16.1623 68.3868 15.5538 68.482 14.7749C69.2732 17.0307 70.5977 18.552 72.7841 19.0452C73.6655 19.2442 73.8497 19.745 73.8519 20.4827C73.8572 22.0975 74.0712 23.6821 74.443 25.25C76.2219 32.7512 82.4899 37.2501 90.4484 35.9767C96.527 35.0032 100.08 30.9688 101.918 25.2333C102.913 22.1318 102.982 18.9334 102.676 15.7028ZM96.4835 25.1832C93.9802 29.7231 89.0569 31.1184 84.9133 27.8179C84.0914 27.1634 83.719 26.159 83.4051 25.1895C82.8614 23.512 82.4865 21.7904 82.5873 19.8175C82.2055 18.5538 82.8804 17.8449 84.1516 17.2534C86.0266 16.3815 87.5912 15.0259 88.899 13.3818C89.389 12.7657 89.6561 12.0605 89.8319 11.322C89.9473 10.8369 90.1907 10.7005 90.642 10.6744C94.0661 10.476 96.3555 12.0212 97.2787 15.3696C98.202 18.7179 98.1955 22.0789 96.4835 25.1829V25.1832ZM35.1401 14.871C33.5153 12.2004 31.2802 10.2385 28.3296 9.13579C25.8176 8.19625 23.2435 8.12601 20.6549 8.51783C16.2197 9.18839 12.8393 11.4646 10.7106 15.5277C10.1654 16.567 10.1235 16.5784 9.08244 15.9793C7.73524 15.2026 6.60575 14.1686 5.5203 13.0672C4.80545 12.3428 4.08564 12.4955 3.68682 13.4265C3.58529 13.668 3.51614 13.9223 3.4812 14.1825C2.98841 17.7708 4.84732 21.2997 8.07669 22.8033C8.69385 23.0909 8.92303 23.4503 8.92861 24.1142C8.94598 26.0418 9.17982 27.948 9.71324 29.8022C10.8068 33.6028 13.0049 36.5159 16.711 37.9301C21.8359 39.886 26.9762 39.6309 31.9054 37.2429C34.8665 35.8095 36.6814 33.2929 37.466 30.0277C37.8208 28.5536 37.9002 27.067 37.8934 25.5615C37.9384 21.746 37.1283 18.1378 35.141 14.8707L35.1401 14.871ZM32.597 29.2075C31.7501 32.3382 28.8838 34.4803 25.8344 34.5559C23.5351 34.6129 21.3133 34.2094 19.6386 32.3905C18.3739 31.0154 18.0321 29.2409 17.7778 27.4604C17.6408 26.4998 17.548 25.5341 17.6299 24.5533C17.6885 23.8544 17.971 23.5054 18.6623 23.3038C20.6518 22.7243 22.3218 21.5992 23.6765 20.003C24.3346 19.2276 24.7839 18.3434 24.9058 17.3258C24.9679 16.814 25.216 16.683 25.6746 16.6612C28.3002 16.5378 30.6057 17.996 31.7138 20.4244C32.57 22.3025 32.9127 24.2711 32.9211 26.5032C32.9561 27.2982 32.8538 28.2626 32.5983 29.2072L32.597 29.2075Z" fill="#C1B2A4"></path><path d="M108.275 41.526C107.569 41.8908 106.798 41.9985 106.011 42.0227C100.566 42.1947 95.1199 42.3522 89.6756 42.5491C82.748 42.801 75.8833 43.6801 69.0257 44.6628C61.5144 45.739 54.1212 47.3617 46.7854 49.2927C44.0994 50.0005 41.5046 51.0367 38.7686 51.5605C37.6698 51.7706 36.5614 51.883 35.3665 51.8373C32.7304 51.9577 30.2726 51.1296 27.9727 49.7482C27.5128 49.4716 26.9524 49.1857 26.9772 48.54C27.002 47.8943 27.5193 47.5636 28.0354 47.282C29.3999 46.534 30.8938 46.2011 32.3933 45.8732C37.9446 44.6593 43.4847 43.3777 49.0494 42.2196C53.1406 41.3692 57.2938 40.9116 61.4523 40.5188C68.2997 39.8741 75.1616 39.5515 82.0353 39.3654C88.81 39.1824 95.5833 39.2441 102.357 39.3093C104.21 39.3273 106.104 39.3295 107.874 40.092C107.992 40.143 108.125 40.1613 108.242 40.218C108.524 40.35 108.868 40.47 108.908 40.8193C108.958 41.2454 108.559 41.3793 108.275 41.526ZM122.25 16.5636C123.591 17.8234 125.18 18.3293 126.966 18.2014C130.236 17.9693 132.539 15.8511 132.476 12.1991C132.398 7.75813 129.295 3.97856 125.053 2.86044C121.265 1.86264 117.53 2.27681 113.833 3.3206C111.369 4.0173 109.134 5.2044 107.367 7.10427C104.832 9.82997 103.804 13.1557 103.876 16.9702C103.872 17.865 103.9 18.8625 104.075 19.8527C105.028 25.2257 107.359 29.77 111.682 33.183C116.268 36.8051 123.007 36.5846 127.078 32.9367C130.338 30.0157 130.44 24.3067 127.18 21.5891C125.841 20.4732 124.459 20.6392 123.648 22.0984C122.301 24.5237 120.199 25.827 117.601 26.3946C114.471 27.0777 111.405 25.7479 110.076 22.9876C108.918 20.5847 108.468 18.0319 108.928 15.3198C109.708 10.726 113.726 8.06365 117.908 8.25955C120.151 8.36475 121.543 9.57799 121.785 11.6076C121.875 12.3635 121.659 13.0713 121.465 13.7809C121.167 14.8763 121.418 15.7796 122.25 16.5636V16.5636ZM101.839 15.3447C101.331 9.9843 97.7526 5.81858 92.6321 4.60219C90.2199 4.02959 87.8006 3.97038 85.3639 4.22896C82.7383 4.5077 80.3113 5.36094 78.1655 6.966C76.6018 8.13514 75.4602 9.64697 74.6496 11.4161C74.3565 12.0552 74.0107 12.1701 73.3715 11.9106C72.038 11.3701 70.7761 10.7367 69.6363 9.83186C68.8136 9.17862 68.2529 9.36791 67.8112 10.3481C67.5067 11.0253 67.3972 11.7531 67.284 12.527C67.1789 12.2627 67.0753 11.9979 66.9686 11.7342C66.1468 9.69831 64.8331 8.10554 62.9679 6.94395C60.0447 5.12409 56.8894 4.82109 53.5875 5.30614C49.5701 5.89764 46.1515 7.69986 43.5778 10.8637C39.957 15.3138 38.3986 20.4776 39.1178 26.2415C39.6224 30.2881 41.5892 33.5061 44.8586 35.8835C46.6799 37.2118 48.775 38.1016 50.9852 38.4854C54.4196 39.0914 57.7662 38.9062 60.8519 37.023C64.1858 34.9883 65.5206 31.2963 64.1843 27.7898C63.9008 27.0472 63.4766 26.382 62.8836 25.8478C61.4173 24.5274 59.7513 24.8263 58.7921 26.5479C56.7353 30.2349 53.5866 31.9804 49.4442 31.6582C47.059 31.4727 45.3464 30.1968 44.537 27.792C43.343 24.2446 43.6686 20.8383 45.6476 17.7214C47.4876 14.8237 50.0188 12.8807 53.6582 12.9935C55.2398 13.042 56.3486 13.9412 56.7344 15.5009C57.0023 16.5822 56.8432 17.636 56.5666 18.6943C56.1547 20.2691 56.6699 21.2858 58.1482 21.9148C61.8195 23.4764 66.7407 20.5488 67.3966 16.4074C67.4918 15.8048 67.5495 15.1963 67.6447 14.4174C68.4358 16.6732 69.7604 18.1941 71.9468 18.6877C72.8282 18.8868 73.0124 19.3875 73.0146 20.1252C73.0198 21.7397 73.2338 23.3243 73.6057 24.8925C75.3846 32.3934 81.6529 36.8926 89.6111 35.6192C95.6896 34.6457 99.2431 30.6113 101.081 24.8755C102.076 21.7737 102.145 18.5753 101.839 15.3447V15.3447ZM95.6465 24.8251C93.1432 29.365 88.2199 30.759 84.0787 27.4601C83.2569 26.8056 82.8847 25.8012 82.5706 24.8317C82.0269 23.1539 81.652 21.4323 81.7528 19.4594C81.371 18.196 82.0458 17.4867 83.317 16.8956C85.1924 16.0234 86.7554 14.6678 88.0636 13.0237C88.5533 12.4076 88.8203 11.7027 88.9961 10.9638C89.1115 10.4791 89.3549 10.3424 89.8062 10.3166C93.2303 10.1178 95.5197 11.6634 96.4429 15.0114C97.3662 18.3595 97.3584 21.7205 95.6465 24.8251ZM34.3031 14.5125C32.6795 11.8426 30.4441 9.88036 27.4936 8.77767C24.9815 7.83813 22.409 7.7679 19.8188 8.15971C15.384 8.83027 12.0036 11.1075 9.87361 15.168C9.3284 16.2074 9.28653 16.219 8.24543 15.6199C6.89854 14.8445 5.76843 13.8108 4.68298 12.7094C3.96969 11.9849 3.24833 12.1374 2.8495 13.0684C2.74747 13.3107 2.67799 13.5658 2.64296 13.8269C2.1514 17.413 4.01031 20.9416 7.23968 22.4468C7.85684 22.7344 8.08602 23.0937 8.09192 23.7574C8.10897 25.6853 8.34281 27.5911 8.87623 29.4456C9.96975 33.2463 12.1679 36.1591 15.874 37.5733C20.9992 39.5292 26.1392 39.2741 31.0684 36.886C34.0295 35.4526 35.8444 32.936 36.629 29.6711C36.9838 28.1971 37.0632 26.7105 37.0564 25.2049C37.1014 21.3882 36.2913 17.78 34.304 14.5125H34.3031ZM31.76 28.8494C30.913 31.9801 28.0468 34.1222 24.9973 34.1978C22.698 34.2545 20.4763 33.8513 18.8019 32.0324C17.5372 30.6573 17.1951 28.8828 16.9411 27.1023C16.8041 26.1416 16.7113 25.1756 16.7932 24.1952C16.8518 23.4963 17.1343 23.1473 17.8256 22.9454C19.8151 22.3662 21.4851 21.2408 22.8398 19.6446C23.4979 18.8694 23.9472 17.9853 24.0691 16.9674C24.1312 16.4555 24.3793 16.3245 24.8379 16.3031C27.4635 16.1796 29.769 17.6376 30.8771 20.066C31.7333 21.9441 32.076 23.9126 32.0844 26.1448C32.1191 26.9401 32.0168 27.9057 31.7612 28.8506L31.76 28.8494Z" fill="white"></path></g><defs><linearGradient id="paint0_linear_210_905" x1="5.45514e-05" y1="29.6264" x2="137" y2="29.6264" gradientUnits="userSpaceOnUse"><stop stop-color="#E1AD52"></stop><stop offset="0.08" stop-color="#E6BD5D"></stop><stop offset="0.18" stop-color="#EDD46E"></stop><stop offset="0.22" stop-color="#EBCE69"></stop><stop offset="0.27" stop-color="#E5BB5B"></stop><stop offset="0.33" stop-color="#DC9F46"></stop><stop offset="0.57" stop-color="#F0D574"></stop><stop offset="0.96" stop-color="#D1A235"></stop></linearGradient><linearGradient id="paint1_linear_210_905" x1="68.4992" y1="56.3892" x2="68.4992" y2="-6.28933e-05" gradientUnits="userSpaceOnUse"><stop offset="0.28" stop-color="#411A12"></stop><stop offset="0.52" stop-color="#72391A"></stop><stop offset="0.74" stop-color="#A3592D"></stop><stop offset="0.96" stop-color="#AA5826"></stop></linearGradient><clipPath id="clip0_210_905"><rect width="137" height="58" fill="white"></rect></clipPath></defs></svg>